<svg xmlns="http://www.w3.org/2000/svg" viewBox="0 0 30 20">
  <rect width="30" height="20" fill="#DE2910"/>
  <!-- Large star -->
  <polygon points="5,2 6.18,5.09 9.51,5.09 6.9,7.06 7.94,10.18 5,8.32 2.06,10.18 3.1,7.06 0.49,5.09 3.82,5.09" fill="#FFDE00"/>
  <!-- Small star 1 -->
  <polygon points="11,1 11.59,2.77 13.43,2.77 11.98,3.87 12.57,5.63 11,4.6 9.43,5.63 10.02,3.87 8.57,2.77 10.41,2.77" fill="#FFDE00"/>
  <!-- Small star 2 -->
  <polygon points="13.5,3.5 14.09,5.27 15.93,5.27 14.48,6.37 15.07,8.13 13.5,7.1 11.93,8.13 12.52,6.37 11.07,5.27 12.91,5.27" fill="#FFDE00"/>
  <!-- Small star 3 -->
  <polygon points="13.5,6.5 14.09,8.27 15.93,8.27 14.48,9.37 15.07,11.13 13.5,10.1 11.93,11.13 12.52,9.37 11.07,8.27 12.91,8.27" fill="#FFDE00"/>
  <!-- Small star 4 -->
  <polygon points="11,9 11.59,10.77 13.43,10.77 11.98,11.87 12.57,13.63 11,12.6 9.43,13.63 10.02,11.87 8.57,10.77 10.41,10.77" fill="#FFDE00"/>
</svg>
